<?xml version="1.0" encoding="utf-8"?>
<!-- Generator: Adobe Illustrator 15.1.0, SVG Export Plug-In . SVG Version: 6.00 Build 0)  -->
<!DOCTYPE svg PUBLIC "-//W3C//DTD SVG 1.1//EN" "http://www.w3.org/Graphics/SVG/1.1/DTD/svg11.dtd">
<svg version="1.1" id="Camada_1" xmlns="http://www.w3.org/2000/svg" xmlns:xlink="http://www.w3.org/1999/xlink" x="0px" y="0px"
	 width="128px" height="128px" viewBox="0 0 128 128" enable-background="new 0 0 128 128" xml:space="preserve">
<g id="Слой_x0020_1">
	<g id="_1453933300384">
		<g>
			<path fill="#00569F" d="M64,0c35,0,64,29,64,64s-29,64-64,64S0,99,0,64S29,0,64,0z M108,20C97,9,81,2,64,2S31,9,20,20S2,47,2,64
				s7,33,18,44s27,18,44,18s33-7,44-18s18-27,18-44S119,31,108,20z"/>
		</g>
		<path fill="#00569F" d="M84,42V30c-11-4-27-1-28,13c-1,8,0,15,0,15H44v14h12v33h15V72h11l2-14H71V48C70,41,80,42,84,42z M88,46
			c-2,0-14-1-13,2v6h14l-4,22H75v33H52V76H40V54h12c0-11,0-22,11-27c9-4,17-3,25,0V46z"/>
	</g>
</g>
</svg>
