<?xml version="1.0" encoding="utf-8"?>
<!-- Generator: Adobe Illustrator 15.1.0, SVG Export Plug-In . SVG Version: 6.00 Build 0)  -->
<!DOCTYPE svg PUBLIC "-//W3C//DTD SVG 1.1//EN" "http://www.w3.org/Graphics/SVG/1.1/DTD/svg11.dtd">
<svg version="1.1" id="Capa_1" xmlns="http://www.w3.org/2000/svg" xmlns:xlink="http://www.w3.org/1999/xlink" x="0px" y="0px"
	 width="512px" height="512px" viewBox="0 0 512 512" enable-background="new 0 0 512 512" xml:space="preserve">
<g>
	<path fill="#FFFFFF" d="M363.702,141.418c-29.193,6.096-60.472,9.704-92.701,10.562v89.018h105.505
		C375.533,205.936,371.158,172.227,363.702,141.418z"/>
	<path fill="#FFFFFF" d="M105.477,240.998c0.989-37.423,5.672-73.538,13.697-106.687c-26.28-7.377-50.325-16.914-71.178-28.376
		C19.436,145.346,2.816,191.865,0,240.998H105.477z"/>
	<path fill="#FFFFFF" d="M105.477,271.001H0c2.814,49.133,19.436,95.651,47.995,135.063c20.853-11.463,44.897-21,71.179-28.377
		C111.149,344.539,106.465,308.424,105.477,271.001z"/>
	<path fill="#FFFFFF" d="M299.141,17.337c-9.173-7.76-18.592-12.987-28.139-15.669v120.306c29.457-0.82,57.955-4.05,84.522-9.451
		c-4.875-14.902-10.542-28.898-16.972-41.757C327.002,47.666,313.74,29.688,299.141,17.337z"/>
	<path fill="#FFFFFF" d="M127.237,406.527c-21.962,6.166-42.144,13.943-59.873,23.183c2.382,2.579,4.806,5.128,7.302,7.625
		c28.841,28.841,63.341,49.962,100.996,62.335c-10.55-12.468-20.305-27.523-29.052-45.019
		C139.208,439.848,132.735,423.711,127.237,406.527z"/>
	<path fill="#FFFFFF" d="M173.446,70.766c-6.429,12.858-12.096,26.855-16.972,41.757c26.567,5.401,55.065,8.631,84.523,9.451V1.668
		c-9.548,2.683-18.967,7.909-28.14,15.669C198.257,29.688,184.997,47.666,173.446,70.766z"/>
	<path fill="#FFFFFF" d="M406.523,271.001c-0.989,37.423-5.672,73.538-13.696,106.687c26.279,7.377,50.325,16.914,71.179,28.377
		c28.56-39.41,45.18-85.93,47.995-135.063L406.523,271.001L406.523,271.001z"/>
	<path fill="#FFFFFF" d="M384.763,105.472c21.962-6.167,42.144-13.945,59.872-23.183c-2.38-2.58-4.805-5.128-7.301-7.625
		c-28.841-28.839-63.342-49.96-100.996-62.334c10.549,12.467,20.304,27.524,29.051,45.017
		C372.789,72.151,379.266,88.289,384.763,105.472z"/>
	<path fill="#FFFFFF" d="M338.553,441.234c6.43-12.859,12.096-26.856,16.972-41.758c-26.567-5.401-55.064-8.632-84.522-9.451
		v120.306c9.548-2.682,18.966-7.908,28.139-15.669C313.74,482.311,327.002,464.336,338.553,441.234z"/>
	<path fill="#FFFFFF" d="M392.825,134.313c8.024,33.149,12.707,69.264,13.696,106.687H512
		c-2.815-49.133-19.438-95.652-47.996-135.062C443.152,117.398,419.106,126.936,392.825,134.313z"/>
	<path fill="#FFFFFF" d="M271.001,271.001v89.019c32.229,0.857,63.507,4.465,92.701,10.562c7.456-30.81,11.831-64.517,12.804-99.579
		L271.001,271.001L271.001,271.001z"/>
	<path fill="#FFFFFF" d="M240.997,240.998V151.98c-32.23-0.858-63.508-4.466-92.702-10.562c-7.456,30.809-11.83,64.517-12.803,99.58
		H240.997z"/>
	<path fill="#FFFFFF" d="M127.237,105.472c5.497-17.184,11.973-33.321,19.373-48.125c8.747-17.493,18.502-32.551,29.052-45.017
		c-37.654,12.374-72.155,33.495-100.996,62.335c-2.496,2.497-4.92,5.045-7.302,7.625C85.093,91.527,105.275,99.305,127.237,105.472z
		"/>
	<path fill="#FFFFFF" d="M384.763,406.527c-5.496,17.184-11.972,33.319-19.373,48.124c-8.747,17.493-18.502,32.551-29.051,45.019
		c37.653-12.373,72.154-33.494,100.996-62.335c2.495-2.496,4.921-5.045,7.301-7.625
		C426.906,420.473,406.725,412.693,384.763,406.527z"/>
	<path fill="#FFFFFF" d="M240.997,271.001H135.492c0.973,35.063,5.347,68.771,12.803,99.579
		c29.193-6.096,60.472-9.703,92.702-10.563V271.001z"/>
	<path fill="#FFFFFF" d="M212.859,494.663c9.173,7.76,18.593,12.986,28.14,15.669V390.025c-29.458,0.819-57.956,4.051-84.523,9.451
		c4.876,14.901,10.542,28.898,16.972,41.758C184.997,464.336,198.257,482.311,212.859,494.663z"/>
</g>
</svg>
