<?xml version="1.0" encoding="utf-8"?>
<!-- Generator: Adobe Illustrator 15.1.0, SVG Export Plug-In . SVG Version: 6.00 Build 0)  -->
<!DOCTYPE svg PUBLIC "-//W3C//DTD SVG 1.1//EN" "http://www.w3.org/Graphics/SVG/1.1/DTD/svg11.dtd">
<svg version="1.1" id="Camada_1" xmlns="http://www.w3.org/2000/svg" xmlns:xlink="http://www.w3.org/1999/xlink" x="0px" y="0px"
	 width="128px" height="128px" viewBox="0 0 128 128" enable-background="new 0 0 128 128" xml:space="preserve">
<g>
	<path fill="#00569F" d="M64,0c35,0,64,29,64,64s-29,64-64,64S0,99,0,64S29,0,64,0z M108,20C97,9,81,2,64,2S31,9,20,20S2,47,2,64
		s7,33,18,44s27,18,44,18s33-7,44-18s18-27,18-44S119,31,108,20z"/>
</g>
<path fill="#00569F" d="M81.94,52.39c0,0,0,0-0.011,0c0.08,0.11,0.16,0.23,0.24,0.34C82.1,52.61,82.02,52.5,81.94,52.39z M86,65
	c0-4.5-1.41-8.72-3.8-12.23c2.33,3.48,3.689,7.69,3.689,12.23S84.53,73.75,82.2,77.23C84.59,73.72,86,69.5,86,65z M64,86.89
	c-4.54,0-8.75-1.359-12.23-3.689C55.28,85.59,59.5,87,64,87s8.72-1.41,12.23-3.8C72.75,85.53,68.54,86.89,64,86.89z M64,43
	c-4.5,0-8.72,1.41-12.23,3.8c3.48-2.33,7.69-3.69,12.23-3.69c4.49,0,8.64,1.32,12.1,3.61C72.61,44.37,68.44,43,64,43z M45.8,52.77
	C43.41,56.28,42,60.5,42,65s1.41,8.72,3.8,12.23c-2.33-3.48-3.69-7.69-3.69-12.23S43.47,56.25,45.8,52.77z"/>
<path fill="#00569F" d="M80,26.5c-10-1-22-1-32,0c-14,0-22,8-23,22v32c1,15,9,22,23,23c10,1,22,1,32,0c14-1,22-8,23-23v-32
	C102,34.5,94,26.5,80,26.5z M82.2,77.23c-0.01,0.01-0.021,0.02-0.03,0.039c-0.39,0.57-0.8,1.131-1.24,1.66
	c-0.899,1.101-1.899,2.101-3,3c-0.529,0.44-1.09,0.851-1.66,1.24c-0.02,0.01-0.029,0.021-0.039,0.03C72.72,85.59,68.5,87,64,87
	s-8.72-1.41-12.23-3.8c-0.01-0.01-0.02-0.021-0.04-0.03c-0.57-0.39-1.13-0.8-1.66-1.24c-1.1-0.899-2.1-1.899-3-3
	c-0.44-0.529-0.85-1.09-1.24-1.66c-0.01-0.02-0.02-0.029-0.03-0.039C43.41,73.72,42,69.5,42,65s1.41-8.72,3.8-12.23
	c0.01-0.01,0.02-0.02,0.03-0.04c0.39-0.57,0.8-1.13,1.24-1.66c0.9-1.1,1.9-2.1,3-3c0.53-0.44,1.09-0.85,1.66-1.24
	c0.02-0.01,0.03-0.02,0.04-0.03C55.28,44.41,59.5,43,64,43c4.44,0,8.61,1.37,12.1,3.72c0.061,0.04,0.11,0.07,0.17,0.11
	c0.57,0.39,1.131,0.8,1.66,1.24c1.101,0.9,2.101,1.9,3,3c0.351,0.42,0.681,0.86,0.99,1.31c0.01,0.01,0.01,0.01,0.01,0.01
	c0.011,0,0.011,0,0.011,0c0.079,0.11,0.159,0.22,0.229,0.34c0.01,0.02,0.021,0.03,0.03,0.04C84.59,56.28,86,60.5,86,65
	S84.59,73.72,82.2,77.23z M85.38,47c-2.21,0-4-1.79-4-4s1.79-4,4-4c2.2,0,4,1.79,4,4S87.58,47,85.38,47z"/>
<path fill="#00569F" d="M64,50c-8,0-15,7-15,15c0,9,7,15,15,15s15-6,15-15C79,57,72,50,64,50z M64,76c-6,0-11-5-11-11s5-11,11-11
	s11,5,11,11S70,76,64,76z"/>
</svg>
