<?xml version="1.0" encoding="utf-8"?>
<!-- Generator: Adobe Illustrator 15.1.0, SVG Export Plug-In . SVG Version: 6.00 Build 0)  -->
<!DOCTYPE svg PUBLIC "-//W3C//DTD SVG 1.1//EN" "http://www.w3.org/Graphics/SVG/1.1/DTD/svg11.dtd">
<svg version="1.1" id="Camada_1" xmlns="http://www.w3.org/2000/svg" xmlns:xlink="http://www.w3.org/1999/xlink" x="0px" y="0px"
	 width="128px" height="128px" viewBox="0 0 128 128" enable-background="new 0 0 128 128" xml:space="preserve">
<g id="Слой_x0020_1">
	<g id="_2643780040992">
		<g>
			<path fill="#00569F" d="M64,0c35,0,64,29,64,64s-29,64-64,64S0,99,0,64S29,0,64,0z M108,20C97,9,81,2,64,2S31,9,20,20S2,47,2,64
				s7,33,18,44s27,18,44,18s33-7,44-18s18-27,18-44S119,31,108,20z"/>
		</g>
		<path fill="#00569F" d="M47,49v46H30V49H47z M39,28c5,0,9,5,9,10s-4,9-9,9c-6,0-10-4-10-9S33,28,39,28z M39,32c-3,0-6,3-6,6
			s3,5,6,5s5-2,5-5S42,32,39,32z M43,53h-9v38h9V53z M69,73v22H52V49h16v3c2-2,5-4,11-4c17,0,18,13,18,26l-1,21H80V71c0-5-1-7-6-7
			S69,69,69,73z M65,91V73c0-6,1-13,9-13c7,0,10,4,10,11v20h9V74c0-11,0-22-14-22c-9,0-7,5-15,8v-7h-8v38H65z"/>
	</g>
</g>
</svg>
