<?xml version="1.0" encoding="utf-8"?>
<!-- Generator: Adobe Illustrator 15.1.0, SVG Export Plug-In . SVG Version: 6.00 Build 0)  -->
<!DOCTYPE svg PUBLIC "-//W3C//DTD SVG 1.1//EN" "http://www.w3.org/Graphics/SVG/1.1/DTD/svg11.dtd">
<svg version="1.1" id="Camada_1" xmlns="http://www.w3.org/2000/svg" xmlns:xlink="http://www.w3.org/1999/xlink" x="0px" y="0px"
	 width="128px" height="128px" viewBox="0 0 128 128" enable-background="new 0 0 128 128" xml:space="preserve">
<g>
	<g>
		<path fill="#00569F" d="M64,0c35,0,64,29,64,64s-29,64-64,64S0,99,0,64S29,0,64,0z M108,20C97,9,81,2,64,2S31,9,20,20S2,47,2,64
			s7,33,18,44s27,18,44,18s33-7,44-18s18-27,18-44S119,31,108,20z"/>
	</g>
	<path fill="#00569F" d="M104,44c-1-4-4-7-7-8c-9-2-57-2-66,0c-3,1-6,4-7,8c-2,8-2,32,0,40c1,4,4,7,7,8c9,2,57,2,66,0c3-1,6-4,7-8
		C106,76,106,52,104,44z M51,83V45l34,19L51,83z"/>
</g>
</svg>
